<svg width="213" height="84" viewBox="0 0 213 84" fill="none" xmlns="http://www.w3.org/2000/svg">
<path d="M17.1299 57.6292C12.5199 55.9542 6.12987 53.7562 6.12987 48.3072C6.12987 42.6532 12.2049 40.5582 16.0809 40.5582C20.0831 40.612 23.9248 42.1406 26.8699 44.8512C26.9465 44.9558 27.0448 45.0426 27.158 45.1057C27.2713 45.1687 27.3968 45.2066 27.526 45.2167C27.6553 45.2267 27.7852 45.2088 27.9068 45.164C28.0285 45.1192 28.139 45.0487 28.2309 44.9572L29.6979 43.2812C29.7906 43.208 29.8674 43.1166 29.9234 43.0125C29.9794 42.9084 30.0134 42.794 30.0233 42.6762C30.0333 42.5585 30.0189 42.4399 29.9812 42.3279C29.9434 42.216 29.8831 42.1129 29.8039 42.0252C26.6599 38.6722 21.6319 36.7862 16.0809 36.7862C9.06387 36.8932 1.83687 40.7682 1.83687 48.6242C1.83687 57.0032 10.9479 59.6242 17.1289 61.9242C21.6289 63.7062 26.7649 65.9052 26.7649 71.5622C26.7649 76.5902 22.3649 79.8372 15.9759 79.8372C11.1599 79.8372 6.44487 77.2192 4.34987 73.4472C4.14087 73.1342 3.82587 72.7142 3.30387 73.0282L0.997866 74.1812C0.901346 74.2045 0.812349 74.2521 0.739258 74.3193C0.666166 74.3865 0.611386 74.4712 0.580076 74.5654C0.548766 74.6596 0.541956 74.7603 0.560289 74.8579C0.578622 74.9555 0.621493 75.0468 0.684866 75.1232C3.40887 80.7802 9.69287 83.5032 15.8729 83.5032C26.3479 83.5032 31.0609 77.4272 31.0609 71.4562C31.0609 63.0772 24.0429 60.2492 17.1299 57.6292Z" fill="#0C0C0C"/>
<path d="M55.1689 36.4722C45.1139 36.4722 37.4689 43.4902 37.4689 54.0722V66.6372C37.4689 76.7972 44.5919 83.5022 55.3799 83.5022C61.8739 83.5022 67.6349 80.8822 70.7799 75.6462C70.9899 75.1222 70.8799 74.7022 70.1509 74.1802L67.2179 72.2942C67.0874 72.1797 66.9329 72.0959 66.7657 72.0491C66.5985 72.0023 66.423 71.9937 66.252 72.0238C66.0811 72.054 65.919 72.1221 65.778 72.2233C65.6369 72.3244 65.5203 72.456 65.4369 72.6082C64.3098 74.2547 62.7911 75.5952 61.0175 76.5092C59.2438 77.4232 57.2708 77.8819 55.2759 77.8442C48.3639 77.8442 43.8609 72.7122 43.8609 66.2182V62.7612C43.8484 62.5519 43.8804 62.3422 43.9548 62.1462C44.0292 61.9501 44.1443 61.772 44.2925 61.6236C44.4408 61.4753 44.6188 61.36 44.8149 61.2855C45.0109 61.211 45.2205 61.1788 45.4299 61.1912H71.1989C71.7238 61.1288 72.2035 60.8639 72.536 60.453C72.8685 60.0421 73.0274 59.5176 72.9789 58.9912V54.2792C72.9789 43.1792 65.6469 36.4722 55.1719 36.4722H55.1689ZM66.4849 54.8032C66.4849 55.6402 66.1719 55.9542 65.4369 55.9542H45.4279C44.3799 55.9542 43.9629 55.3252 43.9629 54.6982V53.1272C43.9492 51.6568 44.2306 50.1986 44.7902 48.8387C45.3499 47.4789 46.1765 46.2451 47.2213 45.2102C48.266 44.1754 49.5076 43.3605 50.8727 42.8138C52.2378 42.2671 53.6986 41.9996 55.1689 42.0272C61.9769 42.0272 66.4819 46.8452 66.4819 53.1272L66.4849 54.8032Z" fill="#0C0C0C"/>
<path d="M98.9699 36.2632C88.1829 36.2632 80.5369 43.6992 80.5369 54.3832V66.3252C80.5369 76.6942 87.9729 83.5042 99.1819 83.5042C105.99 83.5042 112.274 80.7802 115.627 74.7042C115.94 74.0752 115.627 73.5532 114.789 73.0292L111.121 70.5172C110.973 70.3763 110.795 70.271 110.6 70.2094C110.406 70.1477 110.199 70.1314 109.997 70.1616C109.795 70.1918 109.603 70.2677 109.435 70.3836C109.267 70.4995 109.127 70.6522 109.027 70.8302C107.901 72.4611 106.4 73.7975 104.65 74.727C102.899 75.6565 100.951 76.1518 98.9699 76.1712C91.6379 76.1712 88.9159 71.3552 88.9159 65.6972V63.7032C88.906 63.4531 88.948 63.2036 89.0393 62.9705C89.1305 62.7374 89.269 62.5257 89.4461 62.3488C89.6232 62.1718 89.8349 62.0334 90.0681 61.9423C90.3012 61.8511 90.5507 61.8092 90.8009 61.8192H115.312C115.911 61.7348 116.457 61.4305 116.844 60.9654C117.232 60.5003 117.432 59.9078 117.406 59.3032V54.3832C117.406 43.6992 110.075 36.2632 98.9699 36.2632ZM99.6379 56.4082C94.1199 56.4082 89.6459 53.5252 89.6459 49.9682C89.6459 46.4112 94.1199 43.5292 99.6379 43.5292C105.156 43.5292 109.631 46.4112 109.631 49.9682C109.631 53.5252 105.157 56.4082 99.6379 56.4082Z" fill="#0C0C0C"/>
<path d="M144.448 35.5292C132.926 35.5292 124.86 42.9662 124.86 53.8592V65.6952C124.86 76.3802 132.716 83.5042 144.66 83.5042C151.887 83.5042 158.697 80.6752 162.36 74.1812C162.989 72.9232 162.26 72.1902 160.998 71.3532L155.866 68.1052C154.608 67.2682 154.084 67.7922 153.352 68.6292C151.362 71.0372 148.638 73.5522 144.452 73.5522C143.372 73.5636 142.3 73.3558 141.303 72.9412C140.305 72.5266 139.402 71.914 138.648 71.1403C137.894 70.3666 137.305 69.4481 136.916 68.4401C136.527 67.4322 136.347 66.3558 136.386 65.2762V63.7052C136.386 62.7622 137.014 61.9232 138.486 61.9232H161.101C161.505 61.9263 161.905 61.8456 162.276 61.686C162.647 61.5264 162.982 61.2915 163.257 60.9962C163.533 60.7008 163.744 60.3515 163.878 59.9702C164.012 59.5889 164.065 59.1841 164.034 58.7812V53.8592C164.034 42.5482 155.76 35.5292 144.448 35.5292ZM144.936 55.1872C143.816 55.1876 142.721 54.8558 141.789 54.2338C140.858 53.6118 140.131 52.7275 139.703 51.6928C139.274 50.658 139.161 49.5193 139.379 48.4207C139.598 47.322 140.137 46.3128 140.929 45.5206C141.721 44.7284 142.73 44.1889 143.828 43.9702C144.927 43.7515 146.066 43.8636 147.101 44.2921C148.135 44.7207 149.02 45.4465 149.642 46.3778C150.265 47.3091 150.597 48.4041 150.597 49.5242C150.597 51.0258 150 52.4659 148.939 53.5279C147.877 54.5898 146.437 55.1867 144.936 55.1872Z" fill="#B02233"/>
<path d="M210.037 16.1502H200.297C199.996 16.1232 199.693 16.1606 199.409 16.2602C199.124 16.3597 198.863 16.5189 198.645 16.7272C198.427 16.9356 198.255 17.1881 198.142 17.468C198.03 17.7479 197.978 18.0487 197.991 18.3502V36.2632C197.991 36.6822 197.782 36.8922 197.469 36.8922C196.934 36.812 196.429 36.5954 196.003 36.2632C194.43 35.2142 191.497 34.7962 189.611 34.7962C177.463 34.7962 171.282 42.4422 171.282 53.2302V66.2202C171.282 74.9132 175.577 83.5042 188.147 83.5042C190.447 83.5042 193.908 82.8752 195.792 81.4042C196.421 80.8802 196.841 80.4612 197.258 80.4612C197.782 80.4612 197.887 80.5672 198.098 80.9842C198.62 81.9262 198.936 82.8702 200.191 82.8702H210.038C210.346 82.9077 210.658 82.8782 210.953 82.7839C211.248 82.6895 211.519 82.5325 211.748 82.3236C211.977 82.1147 212.158 81.8589 212.279 81.5735C212.4 81.2881 212.458 80.98 212.449 80.6702V18.3522C212.458 18.0425 212.4 17.7345 212.279 17.4492C212.158 17.1639 211.977 16.9081 211.748 16.6992C211.519 16.4903 211.248 16.3333 210.953 16.2389C210.658 16.1445 210.345 16.115 210.038 16.1522L210.037 16.1502ZM197.992 64.7522C197.992 67.9992 195.892 70.6172 191.814 70.6172C187.937 70.6172 185.738 68.1032 185.738 64.7522V53.2312C185.725 52.4396 185.876 51.6538 186.18 50.9227C186.483 50.1915 186.934 49.5305 187.504 48.9806C188.073 48.4308 188.75 48.0037 189.491 47.726C190.233 47.4483 191.023 47.3259 191.814 47.3662C195.897 47.3662 197.992 49.8812 197.992 53.2312V64.7522Z" fill="#0C0C0C"/>
<path d="M174.093 14.4262V13.6882C173.743 11.3642 172.139 10.2292 170.421 8.90023C164.022 3.95623 154.901 0.0762306 142.981 0.532231C137.196 0.737235 131.518 2.14873 126.31 4.67623C124.087 5.7416 121.98 7.0345 120.023 8.53423C119.051 9.22723 118.116 9.97093 117.223 10.7622C116.275 11.5795 115.646 12.7054 115.447 13.9412C115.447 14.2722 115.447 14.6052 115.453 14.9412C115.597 15.7914 115.956 16.5906 116.496 17.2629C117.036 17.9352 117.739 18.4582 118.538 18.7822C119.478 19.2268 120.514 19.4283 121.552 19.3682C123.761 19.2292 124.961 17.9272 126.195 16.9102C130.669 13.2282 136.409 10.6622 144.746 10.5012C148.878 10.4034 152.985 11.173 156.801 12.7602C159.181 13.7303 161.413 15.03 163.431 16.6212C164.028 17.1942 164.663 17.7264 165.331 18.2142C166.2 18.7234 167.18 19.0137 168.187 19.0602C169.193 19.1067 170.196 18.908 171.109 18.4812C171.908 18.1124 172.601 17.5472 173.123 16.8383C173.644 16.1294 173.978 15.2999 174.093 14.4272" fill="#B02233"/>
<path d="M130.895 31.6022C132.303 32.0998 133.838 32.104 135.249 31.6142C136.01 31.2938 136.712 30.8465 137.324 30.2912C139.522 28.5768 142.246 27.6752 145.033 27.7391C147.82 27.8031 150.499 28.8287 152.617 30.6422C153.396 31.2184 154.301 31.6011 155.258 31.7586C156.214 31.9161 157.194 31.844 158.117 31.5482C159.383 31.1474 160.467 30.3137 161.179 29.1932C161.566 28.5217 161.758 27.7551 161.732 26.9802C161.692 26.263 161.485 25.5651 161.127 24.942C160.77 24.3189 160.272 23.7879 159.673 23.3912C158.047 22.0706 156.238 20.9927 154.303 20.1912C151.158 18.8637 147.763 18.2299 144.351 18.3332C142.552 18.375 140.762 18.5923 139.005 18.9822C136.168 19.6442 133.479 20.8276 131.075 22.4722C130.517 22.8382 129.982 23.239 129.475 23.6722C128.962 24.0946 128.518 24.5946 128.159 25.1542C127.819 25.8132 127.644 26.5448 127.649 27.2862C127.654 28.0276 127.838 28.7568 128.187 29.4112C128.855 30.3941 129.799 31.1569 130.9 31.6032" fill="#B02233"/>
</svg>
