<?xml version="1.0" encoding="UTF-8"?><svg xmlns="http://www.w3.org/2000/svg" viewBox="0 0 2500 2500"><defs><style>.d{fill:#000000;opacity:.30;}.e{fill:#000000;}</style></defs><g id="a"/><g id="b"><g id="c"><path class="d" d="M2082.2,0H417.8C187.06,0,0,187.06,0,417.8v1664.39c0,230.75,187.06,417.8,417.8,417.8h1664.39c230.71,.03,417.77-186.97,417.8-417.69V417.8C2500.06,187.12,2313.11,.06,2082.42,0c-.08,0-.15,0-.23,0Zm-36.7,1913.8c-.03,72.77-59.03,131.75-131.81,131.75H586.59c-72.79,.03-131.83-58.95-131.86-131.75h0V586.65c-.03-72.79,58.95-131.83,131.75-131.86H1913.63c72.79,0,131.81,59.01,131.81,131.81V1913.8h.06Z"/><path class="d" d="M984.74,1590.93c-41.9-.13-75.77-34.18-75.67-76.07V985.14c0-41.98,33.86-76.07,75.67-76.07h530.52c41.93,0,75.67,34.09,75.67,76.07v529.72c0,41.93-33.75,76.07-75.67,76.07H984.74Z"/><g><path class="e" d="M2500,1250.43c0-165.6-207.38-322.53-525.33-419.86,73.37-324.06,40.76-581.89-102.93-664.43-33.12-19.36-71.84-28.53-114.14-28.53v113.63c23.44,0,42.29,4.59,58.09,13.25,69.3,39.74,99.36,191.08,75.92,385.72-5.6,47.9-14.78,98.34-25.99,149.8-99.87-24.46-208.91-43.31-323.55-55.54-68.79-94.26-140.12-179.87-211.97-254.77,166.11-154.39,322.03-238.97,428.01-238.97v-113.63c-140.12,0-323.55,99.87-509.02,273.11-185.47-172.22-368.9-271.07-509.02-271.07v113.63c105.47,0,261.9,84.07,428.01,237.44-71.33,74.9-142.67,159.99-210.44,254.26-115.15,12.23-224.19,31.08-324.06,56.05-11.72-50.95-20.38-100.38-26.5-147.76-23.95-194.64,5.6-345.97,74.39-386.23,15.29-9.17,35.16-13.25,58.6-13.25v-113.63c-42.8,0-81.53,9.17-115.15,28.53-143.18,82.54-175.28,339.86-101.4,662.9C206.59,928.91,.23,1085.34,.23,1250.43s207.38,322.53,525.33,419.86c-73.37,324.06-40.76,581.89,102.93,664.43,33.12,19.36,71.84,28.53,114.65,28.53,140.12,0,323.55-99.87,509.02-273.11,185.47,172.22,368.9,271.07,509.02,271.07,42.8,0,81.53-9.17,115.15-28.53,143.18-82.54,175.28-339.86,101.4-662.9,315.91-97.32,522.27-254.26,522.27-419.35h0Zm-663.41-339.86c-18.85,65.73-42.29,133.5-68.79,201.27-20.89-40.76-42.8-81.53-66.75-122.29-23.44-40.76-48.41-80.51-73.37-119.23,72.35,10.7,142.16,23.95,208.91,40.25h0Zm-233.37,542.65c-39.74,68.79-80.51,134.01-122.8,194.64-75.92,6.62-152.86,10.19-230.31,10.19s-153.88-3.57-229.29-9.68c-42.29-60.63-83.56-125.35-123.31-193.62-38.72-66.75-73.88-134.52-105.98-202.79,31.59-68.28,67.26-136.55,105.47-203.3,39.74-68.79,80.51-134.01,122.8-194.64,75.92-6.62,152.86-10.19,230.31-10.19s153.88,3.57,229.29,9.68c42.29,60.63,83.56,125.35,123.31,193.62,38.72,66.75,73.88,134.52,105.98,202.79-32.1,68.28-67.26,136.55-105.47,203.3h0Zm164.58-66.24c27.51,68.28,50.95,136.55,70.32,202.79-66.75,16.31-137.06,30.06-209.93,40.76,24.97-39.23,49.93-79.49,73.37-120.76,23.44-40.76,45.35-82.03,66.24-122.8h0Zm-516.67,543.67c-47.39-48.92-94.77-103.44-141.65-163.05,45.86,2.04,92.74,3.57,140.12,3.57s95.28-1.02,141.65-3.57c-45.86,59.62-93.24,114.14-140.12,163.05Zm-379.09-300.12c-72.35-10.7-142.16-23.95-208.91-40.25,18.85-65.73,42.29-133.5,68.79-201.27,20.89,40.76,42.8,81.53,66.75,122.29s48.41,80.51,73.37,119.23Zm376.55-1060.34c47.39,48.92,94.77,103.44,141.65,163.05-45.86-2.04-92.74-3.57-140.12-3.57s-95.28,1.02-141.65,3.57c45.86-59.62,93.24-114.14,140.12-163.05Zm-377.05,300.12c-24.97,39.23-49.93,79.49-73.37,120.76-23.44,40.76-45.35,81.53-66.24,122.29-27.51-68.28-50.95-136.56-70.32-202.79,66.75-15.8,137.06-29.55,209.93-40.25h0Zm-461.13,637.94c-180.37-76.94-297.06-177.83-297.06-257.82s116.68-181.39,297.06-257.82c43.82-18.85,91.72-35.67,141.14-51.46,29.04,99.87,67.26,203.81,114.65,310.31-46.88,105.98-84.58,209.42-113.12,308.78-50.44-15.8-98.34-33.12-142.67-51.97h0Zm274.13,728.12c-69.3-39.74-99.36-191.08-75.92-385.72,5.6-47.9,14.78-98.34,25.99-149.8,99.87,24.46,208.91,43.31,323.55,55.54,68.79,94.26,140.12,179.87,211.97,254.77-166.11,154.39-322.03,238.97-428.01,238.97-22.93-.51-42.29-5.1-57.58-13.76h0Zm1208.61-388.26c23.95,194.64-5.6,345.97-74.39,386.23-15.29,9.17-35.16,13.25-58.6,13.25-105.47,0-261.9-84.07-428.01-237.44,71.33-74.9,142.67-159.99,210.44-254.26,115.15-12.23,224.19-31.08,324.06-56.05,11.72,51.46,20.89,100.89,26.5,148.27Zm196.17-339.86c-43.82,18.85-91.72,35.67-141.14,51.46-29.04-99.87-67.26-203.81-114.65-310.31,46.88-105.98,84.58-209.42,113.12-308.78,50.44,15.8,98.34,33.12,143.18,51.97,180.38,76.94,297.06,177.83,297.06,257.82-.51,80-117.19,181.39-297.57,257.82h0Z"/><circle class="e" cx="1249.6" cy="1250.43" r="232.86"/></g></g></g></svg>