<svg width="100" height="88" viewBox="0 0 100 88" fill="none" xmlns="http://www.w3.org/2000/svg">
<path d="M99.296 44.0103C99.296 37.4786 91.1169 31.2878 78.5752 27.451C81.4714 14.671 80.1856 4.49959 74.5165 1.24195C73.1429 0.472609 71.5882 0.0853551 70.0142 0.12047V4.59818C70.9385 4.59818 71.682 4.78304 72.3064 5.12401C75.0383 6.69326 76.2255 12.6581 75.3012 20.3359C75.0793 22.2256 74.7178 24.2139 74.2742 26.2432C70.0743 25.2311 65.8117 24.4997 61.5147 24.0536C58.9549 20.522 56.1621 17.1651 53.155 14.0055C59.7072 7.91744 65.8569 4.58175 70.0388 4.58175V0.0999298C64.5095 0.0999298 57.2753 4.0395 49.959 10.8711C42.6467 4.08468 35.4084 0.18209 29.8832 0.18209V4.6598C34.0446 4.6598 40.2148 7.97906 46.767 14.026C43.9531 16.9838 41.1391 20.3359 38.4648 24.0536C34.1589 24.4947 29.8887 25.2332 25.6848 26.2637C25.2405 24.3403 24.8909 22.3963 24.6373 20.4386C23.6924 12.7567 24.8591 6.79185 27.5745 5.20617C28.1743 4.84466 28.9589 4.68034 29.8832 4.68034V0.20263C28.1989 0.20263 26.6666 0.564133 25.3439 1.32411C19.6954 4.58175 18.4301 14.7285 21.3427 27.4715C8.84204 31.333 0.704102 37.4991 0.704102 44.0103C0.704102 50.542 8.88312 56.7327 21.4248 60.5655C18.5287 73.3496 19.8145 83.521 25.4835 86.7745C26.7899 87.5386 28.318 87.9001 30.0023 87.9001C35.5317 87.9001 42.7659 83.9605 50.0822 77.1289C57.3944 83.9194 64.6286 87.8179 70.158 87.8179C71.7441 87.8514 73.3106 87.463 74.6973 86.6923C80.3458 83.4388 81.611 73.2921 78.6985 60.5491C91.158 56.7122 99.296 50.5214 99.296 44.0103ZM73.128 30.6059C72.3475 33.2919 71.4427 35.9403 70.4168 38.5425C68.7373 35.2757 66.8931 32.0961 64.8915 29.0161C67.7466 29.4392 70.4989 29.9609 73.1321 30.6059H73.128ZM63.9261 52.0085C62.4215 54.6355 60.8056 57.1971 59.0828 59.6864C53.0533 60.2178 46.989 60.2247 40.9583 59.7069C37.4992 54.7657 34.474 49.5346 31.9166 44.0719C34.4701 38.5964 37.4824 33.3468 40.9214 28.3794C46.9494 27.8468 53.0123 27.8386 59.0417 28.3547C60.7096 30.7456 62.3404 33.3007 63.9056 35.9956C65.4338 38.6247 66.8223 41.2949 68.0875 43.9897C66.8082 46.7173 65.42 49.3923 63.9261 52.0085ZM70.4168 49.3959C71.5013 52.0866 72.4297 54.7814 73.1897 57.3941C70.5605 58.0391 67.7835 58.5813 64.912 59.0003C66.9054 55.8923 68.7426 52.6868 70.4168 49.3959ZM50.0411 70.8396C48.172 68.9088 46.3028 66.7603 44.4542 64.4065C46.2618 64.4886 48.1104 64.5502 49.9795 64.5502C51.8692 64.5502 53.7383 64.5092 55.5664 64.4065C53.7588 66.7603 51.8897 68.9088 50.0411 70.8396ZM35.088 59.0003C32.3182 58.599 29.5684 58.0699 26.8474 57.4147C27.5909 54.8225 28.5152 52.1482 29.5587 49.478C30.3844 51.0801 31.2511 52.6905 32.196 54.3008C33.1408 55.907 34.1021 57.4763 35.088 59.0003ZM49.9384 17.181C51.8075 19.1117 53.6767 21.2602 55.5253 23.6141C53.7178 23.5319 51.8692 23.4703 50 23.4703C48.1104 23.4703 46.2412 23.5114 44.4132 23.6141C46.2207 21.2602 48.0898 19.1117 49.9384 17.181ZM35.0675 29.0202C33.0746 32.1215 31.2374 35.3201 29.5628 38.6042C28.5079 35.9851 27.5825 33.3158 26.7899 30.6059C29.419 29.9815 32.196 29.4392 35.0675 29.0202ZM16.8814 54.1776C9.76634 51.1459 5.16538 47.1652 5.16538 44.0103C5.16538 40.8553 9.76634 36.8541 16.8814 33.843C18.6067 33.0994 20.4964 32.4339 22.4477 31.8136C23.5938 35.7491 25.1015 39.8489 26.9665 44.0514C25.2057 48.004 23.7165 52.0721 22.5093 56.2274C20.601 55.6366 18.7227 54.9524 16.8814 54.1776ZM27.6936 82.8924C24.9618 81.3314 23.7746 75.3584 24.6989 67.6846C24.9207 65.795 25.2822 63.8026 25.7259 61.7732C29.6614 62.7386 33.9624 63.4822 38.4853 63.9669C41.0453 67.4985 43.8381 70.8553 46.8451 74.0151C40.2928 80.1031 34.1432 83.4388 29.9612 83.4388C29.1723 83.4474 28.3934 83.2611 27.6936 82.8965V82.8924ZM75.3628 67.5819C76.3076 75.2598 75.141 81.2287 72.4256 82.8144C71.8258 83.1759 71.0412 83.3361 70.1169 83.3361C65.9555 83.3361 59.7853 80.021 53.233 73.9699C56.2275 70.8234 59.0014 67.4743 61.5353 63.9464C65.8411 63.5053 70.1113 62.7668 74.3152 61.7363C74.7795 63.7656 75.1368 65.7128 75.3628 67.5819ZM83.0981 54.1776C81.3728 54.9211 79.4831 55.5866 77.5318 56.2069C76.3034 52.0304 74.7937 47.9418 73.013 43.9692C74.8616 39.7914 76.3446 35.7121 77.4702 31.7931C79.3846 32.386 81.2696 33.07 83.1187 33.843C90.2337 36.8747 94.8347 40.8553 94.8347 44.0103C94.8141 47.1652 90.2132 51.1664 83.0981 54.1776Z" fill="#1B1B1B"/>
<path d="M49.9795 53.1958C52.4157 53.1958 54.752 52.228 56.4747 50.5054C58.1973 48.7828 59.165 46.4465 59.165 44.0103C59.165 41.5742 58.1973 39.2378 56.4747 37.5152C54.752 35.7926 52.4157 34.8248 49.9795 34.8248C47.5434 34.8248 45.207 35.7926 43.4844 37.5152C41.7618 39.2378 40.7941 41.5742 40.7941 44.0103C40.7941 46.4465 41.7618 48.7828 43.4844 50.5054C45.207 52.228 47.5434 53.1958 49.9795 53.1958Z" fill="#1B1B1B"/>
</svg>
