<?xml version="1.0" encoding="utf-8"?>
<!-- Generator: Adobe Illustrator 25.3.1, SVG Export Plug-In . SVG Version: 6.00 Build 0)  -->
<svg version="1.1" id="Layer_1" xmlns="http://www.w3.org/2000/svg" xmlns:xlink="http://www.w3.org/1999/xlink" x="0px" y="0px"
	 viewBox="0 0 240 240" style="enable-background:new 0 0 240 240;" xml:space="preserve">
<style type="text/css">
	.st0{fill:#D1283D;}
</style>
<path class="st0" d="M117.1,104.7c-30.5,0-51.9,19.7-51.9,48.5v31.4c0,28.3,20.8,47.2,52.4,47.2c19.1,0,37.2-7.5,46.9-24.7
	c1.7-3.3-0.3-5.3-3.6-7.5l-13.6-8.6c-3.3-2.2-4.7-0.8-6.7,1.4c-5.3,6.4-12.5,13-23.6,13c-12.8,0-21.4-10-21.4-21.9v-4.2
	c0-2.5,1.7-4.7,5.6-4.7h59.9c4.4,0,7.8-3.3,7.8-8.3v-13C169,123.3,147.1,104.7,117.1,104.7z M118.4,156.8c-8.3,0-15-6.7-15-15
	c0-8.3,6.7-15,15-15c8.3,0,15,6.7,15,15C133.4,150,126.7,156.8,118.4,156.8z"/>
<path class="st0" d="M195.6,48.8l0-2c-0.9-6.2-5.2-9.2-9.7-12.7C169,21.1,144.8,10.8,113.2,12c-17.5,0.7-31.7,5-44.2,11
	c-6.2,2.9-11.4,6.3-16.7,10.2C50,35,47.3,36.9,45,39.1c-2.4,2.2-4.4,5.3-4.7,8.4c0,0.9,0,1.8,0,2.6c0.8,5,3.9,8.1,8.2,10.2
	c2.3,1.1,5.2,1.7,8,1.6c5.9-0.4,9-3.8,12.3-6.5c11.9-9.8,27.1-16.6,49.2-17c12.8-0.2,23.1,2.4,31.9,6c6.5,2.7,12.4,6.2,17.6,10.2
	c1.7,1.3,3.1,3.1,5,4.2c4.4,2.6,10.3,3.1,15.3,0.7C192,57.5,194.8,53.9,195.6,48.8z"/>
<path class="st0" d="M81.2,94.3c3.2,1.3,8.3,1.3,11.5,0c2.2-0.9,3.8-2.1,5.5-3.5c4.8-4.1,11.8-7,20.9-6.7c9.2,0.2,14.7,3.8,19.6,7.7
	c3.3,2.6,9.2,4.2,14.6,2.4c3.5-1.2,6.5-3.5,8.1-6.2c1-1.7,1.5-3.7,1.5-5.9c-0.1-4.5-2.7-7.3-5.5-9.5c-4.1-3.3-8.8-6.3-14.2-8.5
	c-7.2-2.9-16.1-5.3-26.4-4.9c-5.5,0.2-9.9,0.7-14.2,1.7c-8.3,1.9-15.2,5.3-21,9.2c-1.4,0.9-2.9,2-4.3,3.2c-1.3,1.2-2.6,2.4-3.5,3.9
	c-1.8,3.2-1.8,8.1,0.1,11.3C75.3,90.6,78.2,93,81.2,94.3z"/>
</svg>
