<svg width="267" height="66" viewBox="0 0 267 66" fill="none" xmlns="http://www.w3.org/2000/svg">
<path d="M65.0194 33.0618C65.0194 40.2677 65.0194 47.4741 65.0194 54.6809C65.0693 56.5486 64.6171 58.3955 63.7102 60.029C62.8032 61.6625 61.4746 63.0227 59.8629 63.9679C58.4233 64.8864 56.7661 65.4072 55.0599 65.4773C54.658 65.498 54.2547 65.5063 53.8515 65.5063C39.6183 65.5063 25.3852 65.5109 11.152 65.5201C9.51443 65.5753 7.88583 65.2562 6.39016 64.5872C4.8945 63.918 3.57119 62.9165 2.52096 61.6589C0.884899 59.7861 -0.00826288 57.3788 0.0103573 54.8922C-0.00345242 40.3008 -0.00345242 25.7086 0.0103573 11.1155C0.035973 8.38195 1.10541 5.76157 2.99977 3.79071C4.89412 1.81985 7.47013 0.647563 10.2005 0.513802C10.5582 0.498611 10.9159 0.49723 11.2735 0.49723C25.4625 0.496309 39.651 0.491246 53.8391 0.482039C56.6888 0.371022 59.4674 1.3877 61.5725 3.31164C62.6905 4.31689 63.5779 5.55205 64.1739 6.93242C64.7698 8.3128 65.0601 9.80572 65.0249 11.3088C65.0028 18.5603 65.018 25.809 65.018 33.0618H65.0194ZM32.6053 12.2437C26.9199 12.2437 21.2344 12.31 15.5504 12.212C15.04 12.2026 14.533 12.2962 14.0596 12.4872C13.5863 12.6782 13.1563 12.9627 12.7953 13.3236C12.4344 13.6846 12.1499 14.1146 11.9589 14.5879C11.7679 15.0613 11.6743 15.5683 11.6837 16.0787C11.7306 27.3593 11.7306 38.6395 11.6837 49.9193C11.6764 50.4291 11.7715 50.9351 11.9632 51.4076C12.155 51.88 12.4395 52.3091 12.8 52.6696C13.1606 53.0301 13.5897 53.3147 14.0621 53.5064C14.5345 53.6982 15.0406 53.7932 15.5504 53.786C26.8743 53.7156 38.1982 53.757 49.5222 53.7529C50.0265 53.7918 50.5333 53.7242 51.0097 53.5545C51.4862 53.3847 51.9216 53.1166 52.2876 52.7675C52.6536 52.4184 52.942 51.9962 53.1341 51.5284C53.3263 51.0605 53.4178 50.5574 53.4027 50.0519C53.4234 49.6942 53.4027 49.3351 53.4027 48.9775C53.4027 38.3238 53.4027 27.6701 53.4027 17.0164C53.4027 13.4258 52.2372 12.2396 48.7074 12.2396H32.6053" fill="#1B1B1B"/>
<path d="M144.999 65.3972H141.555V48.6874L141.249 48.5494C140.294 49.7618 139.185 50.8441 137.95 51.7684C136.685 52.6145 135.296 53.2575 133.833 53.6741C130.826 54.4264 127.671 54.3462 124.706 53.4421C123.205 52.9873 121.785 52.2995 120.498 51.4038C119.24 50.5428 118.122 49.4924 117.184 48.2897C114.867 45.2591 113.735 41.4877 114 37.6822C114.265 33.8767 115.909 30.2984 118.623 27.618C123.648 22.7418 135.154 20.5958 141.409 29.1371C141.714 27.4689 141.387 25.8739 141.624 24.2499C142.742 24.0765 143.88 24.0737 144.998 24.2416L144.999 65.3972ZM129.777 26.5464C128.159 26.5149 126.551 26.8128 125.051 27.4219C123.552 28.0309 122.192 28.9385 121.054 30.0894C119.916 31.2404 119.023 32.6106 118.431 34.117C117.839 35.6234 117.56 37.2344 117.609 38.8522C117.602 40.4429 117.91 42.0192 118.515 43.4902C119.121 44.9612 120.011 46.2976 121.136 47.4223C122.261 48.5469 123.598 49.4375 125.069 50.0426C126.54 50.6477 128.116 50.9552 129.707 50.9474C131.298 50.9397 132.871 50.6168 134.336 49.9974C135.801 49.378 137.129 48.4745 138.243 47.3389C139.357 46.2033 140.235 44.8582 140.826 43.3814C141.417 41.9046 141.709 40.3253 141.686 38.7348C141.723 35.5395 140.489 32.4606 138.255 30.1751C136.022 27.8897 132.972 26.5849 129.777 26.5478" fill="#1B1B1B"/>
<path d="M81.7291 42.0284C82.044 41.8886 82.3909 41.8366 82.733 41.8779C83.534 41.871 84.335 41.8779 85.0034 41.8779C85.1019 41.935 85.1842 42.0164 85.2424 42.1143C85.3007 42.2122 85.3329 42.3233 85.3362 42.4372C85.5494 44.208 86.2888 45.8741 87.4589 47.2203C88.6291 48.5664 90.176 49.5306 91.8999 49.9883C93.6785 50.6379 95.6005 50.7907 97.4594 50.4301C99.3182 50.0695 101.044 49.2092 102.45 47.9417C103.593 47.0568 104.452 45.8565 104.921 44.4891C105.39 43.1217 105.448 41.647 105.088 40.247C104.775 38.9744 104.027 37.8511 102.974 37.0707C101.244 35.7925 99.284 34.8582 97.2014 34.3185C95.4946 33.802 93.749 33.4153 92.0297 32.9375C90.1625 32.4658 88.3908 31.6748 86.7931 30.5995C85.6755 29.8436 84.7519 28.8348 84.0973 27.655C83.4427 26.4752 83.0756 25.1576 83.0258 23.8093C82.8831 22.2802 83.0539 20.7381 83.5279 19.2773C84.0019 17.8165 84.7689 16.4678 85.7822 15.3137C86.7955 14.1597 88.0336 13.2246 89.4208 12.5656C90.808 11.9066 92.3151 11.5377 93.8498 11.4814C95.8124 11.2433 97.8035 11.468 99.6637 12.1376C101.524 12.8071 103.201 13.9028 104.562 15.3371C106.104 16.9803 107.073 19.0785 107.324 21.3181C107.391 21.6163 107.346 21.9288 107.198 22.1963C106.113 22.3497 105.014 22.3692 103.924 22.2544C103.809 22.1972 103.711 22.1116 103.638 22.0058C103.566 21.8999 103.521 21.7773 103.51 21.6495C103.326 20.3303 102.775 19.0891 101.921 18.0674C101.066 17.0456 99.9422 16.2843 98.6763 15.8701C97.0871 15.1662 95.3252 14.9479 93.6123 15.2427C91.8994 15.5376 90.3119 16.3325 89.0496 17.5273C88.0321 18.3882 87.2931 19.5318 86.9263 20.8132C86.5595 22.0946 86.5814 23.456 86.9892 24.7249C87.2778 25.8179 87.9454 26.7727 88.8728 27.4192C90.4431 28.4559 92.1986 29.1799 94.0431 29.5514C96.2219 30.0349 98.3677 30.6567 100.467 31.4129C102.321 32.0794 104.051 33.0507 105.585 34.2867C106.764 35.2578 107.694 36.4961 108.298 37.8988C108.901 39.3015 109.162 40.828 109.057 42.3516C109.012 44.0565 108.588 45.7302 107.818 47.252C107.048 48.7739 105.95 50.106 104.603 51.1525C101.743 53.3884 98.1674 54.5075 94.5429 54.3009C90.9184 54.0943 87.4928 52.5762 84.9053 50.0297C82.9987 48.1042 81.8379 45.5642 81.6297 42.8625C81.6197 42.6839 81.6224 42.5049 81.6379 42.3267C81.6571 42.2241 81.6852 42.1233 81.7222 42.0257" fill="#1B1B1B"/>
<path d="M266.798 40.0895H240.225C239.793 43.9562 243.439 48.5977 247.931 50.3087C250.677 51.2254 253.664 51.0955 256.319 49.9439C258.975 48.7923 261.111 46.7002 262.318 44.0695C263.499 43.9652 264.688 43.9879 265.864 44.1371C264.622 49.1086 257.884 55.8422 248.419 53.8729C244.52 53.0104 241.107 50.6697 238.898 47.3429C236.688 44.0162 235.855 39.9625 236.573 36.0341C237.291 32.1058 239.504 28.6087 242.747 26.2782C245.99 23.9476 250.01 22.9651 253.962 23.5372C262.067 24.9555 268.186 32.8947 266.805 40.0868L266.798 40.0895ZM240.207 36.6523C241.45 36.9285 262.18 36.894 263.167 36.615C262.783 33.7685 261.355 31.1661 259.16 29.3125C256.966 27.4588 254.162 26.4859 251.291 26.5823C245.532 26.7425 240.405 31.5538 240.206 36.6523" fill="#1B1B1B"/>
<path d="M211.097 29.1357C211.327 27.4565 211.086 25.8628 211.257 24.2043C212.373 24.1173 213.494 24.1067 214.611 24.1725C214.896 25.1392 214.994 51.1925 214.733 53.2626C213.58 53.5488 212.377 53.5644 211.218 53.3082V48.6833L210.99 48.5314C209.127 51.0602 206.462 52.8835 203.429 53.7045C200.38 54.482 197.171 54.3641 194.187 53.3648C191.177 52.405 188.547 50.5203 186.671 47.979C184.381 44.816 183.356 40.9105 183.798 37.0302C184.24 33.1499 186.118 29.5753 189.062 27.009C194.448 22.4436 205.314 21.1192 211.098 29.1316L211.097 29.1357ZM187.305 38.8149C187.47 45.8413 192.291 50.9371 199.483 50.9481C202.668 50.8909 205.704 49.5879 207.94 47.3185C210.176 45.049 211.434 41.9938 211.444 38.8079C211.454 35.622 210.215 32.559 207.993 30.2757C205.772 27.9923 202.744 26.6704 199.559 26.5934C192.501 26.5354 187.523 31.5869 187.305 38.8149Z" fill="#1B1B1B"/>
<path d="M177.988 53.5623H174.732C174.491 52.191 174.732 50.7617 174.594 49.3821C174.248 49.2233 174.16 49.4885 174.065 49.6473C173.32 50.8804 172.3 51.9242 171.084 52.6964C169.868 53.4687 168.489 53.9485 167.056 54.0981C164.297 54.5485 161.467 54.1802 158.916 53.0389C157.267 52.3183 155.825 51.1962 154.722 49.7752C153.619 48.3541 152.889 46.6793 152.599 44.9037C152.34 43.4955 152.219 42.0654 152.237 40.6337C152.204 35.3957 152.223 30.1577 152.226 24.9183C152.226 24.6531 152.27 24.3894 152.299 24.0593C153.409 23.8999 154.534 23.8693 155.651 23.9682C155.852 24.4254 155.917 24.9306 155.839 25.4237C155.846 30.3031 155.846 35.1826 155.839 40.062C155.845 41.4023 155.979 42.739 156.236 44.0544C157.269 49.4608 161.39 51.3997 166.105 50.9288C170.819 50.4579 174.221 46.5622 174.338 41.3808C174.458 36.1 174.375 30.815 174.389 25.5328C174.331 25.0217 174.368 24.5042 174.5 24.0068H177.987L177.988 53.5623Z" fill="#1B1B1B"/>
<path d="M226 53.3896C224.858 53.5045 223.708 53.5248 222.563 53.4504V24.2236C223.76 24.0961 224.967 24.0961 226.165 24.2236V27.9522L226.441 28.0724C227.12 26.61 228.22 25.3837 229.6 24.5509C230.299 24.148 231.059 23.8639 231.85 23.7099C232.681 23.4333 233.565 23.3525 234.432 23.4738C234.607 24.7017 234.631 25.9466 234.501 27.1803C233.543 27.305 232.6 27.529 231.688 27.8487C230.306 28.3277 229.081 29.1764 228.146 30.3027C227.212 31.4289 226.604 32.7896 226.388 34.237C226.225 35.1614 226.149 36.099 226.16 37.0376C226.175 41.9612 226.175 46.8867 226.16 51.814C226.225 52.3466 226.169 52.8869 225.997 53.3952" fill="#1B1B1B"/>
<path d="M41.2999 33.0024C41.2999 35.1954 41.3095 37.3884 41.2999 39.5814C41.2902 41.2261 40.6936 41.8144 39.0185 41.8172C34.6777 41.8273 30.3364 41.8273 25.9946 41.8172C24.3802 41.8172 23.7961 41.2468 23.7851 39.6477C23.7694 35.2166 23.7694 30.7855 23.7851 26.3545C23.7851 24.7677 24.3858 24.1877 25.9946 24.1836C30.3806 24.1716 34.7665 24.1716 39.1525 24.1836C40.6494 24.1836 41.2805 24.8147 41.2943 26.2868C41.3137 28.524 41.2943 30.7625 41.2943 32.9997" fill="#1B1B1B"/>
</svg>
